<svg width="18" height="19" viewBox="0 0 18 19" fill="none" xmlns="http://www.w3.org/2000/svg">
<g clip-path="url(#clip0_1907_11628)">
<path d="M0 15C0 15.8281 0.671875 16.5 1.5 16.5H16.5C17.3281 16.5 18 15.8281 18 15V9.5H0V15ZM6 12.875C6 12.6687 6.16875 12.5 6.375 12.5H10.625C10.8313 12.5 11 12.6687 11 12.875V14.125C11 14.3312 10.8313 14.5 10.625 14.5H6.375C6.16875 14.5 6 14.3312 6 14.125V12.875ZM2 12.875C2 12.6687 2.16875 12.5 2.375 12.5H4.625C4.83125 12.5 5 12.6687 5 12.875V14.125C5 14.3312 4.83125 14.5 4.625 14.5H2.375C2.16875 14.5 2 14.3312 2 14.125V12.875ZM18 4V5.5H0V4C0 3.17187 0.671875 2.5 1.5 2.5H16.5C17.3281 2.5 18 3.17187 18 4Z" fill="#999999"/>
</g>
<defs>
<clipPath id="clip0_1907_11628">
<rect width="18" height="18" fill="white" transform="translate(0 0.5)"/>
</clipPath>
</defs>
</svg>
