<svg width="31" height="31" viewBox="0 0 31 31" fill="none" xmlns="http://www.w3.org/2000/svg">
<g clip-path="url(#clip0_1907_11651)">
<path d="M0 24.9721C0 26.3983 1.15712 27.5554 2.58333 27.5554H28.4167C29.8429 27.5554 31 26.3983 31 24.9721V15.4999H0V24.9721ZM10.3333 21.3124C10.3333 20.9572 10.624 20.6666 10.9792 20.6666H18.2986C18.6538 20.6666 18.9444 20.9572 18.9444 21.3124V23.4652C18.9444 23.8204 18.6538 24.111 18.2986 24.111H10.9792C10.624 24.111 10.3333 23.8204 10.3333 23.4652V21.3124ZM3.44444 21.3124C3.44444 20.9572 3.73507 20.6666 4.09028 20.6666H7.96528C8.32049 20.6666 8.61111 20.9572 8.61111 21.3124V23.4652C8.61111 23.8204 8.32049 24.111 7.96528 24.111H4.09028C3.73507 24.111 3.44444 23.8204 3.44444 23.4652V21.3124ZM31 6.02767V8.611H0V6.02767C0 4.60145 1.15712 3.44434 2.58333 3.44434H28.4167C29.8429 3.44434 31 4.60145 31 6.02767Z" fill="white"/>
<rect x="12.6816" y="5.63672" width="16.9091" height="16.9091" rx="8.45455" fill="#BF1363"/>
<path d="M17.3589 16.9198H16.251V12.515L15 12.9279V11.9499L17.2452 11.0762H17.3589V16.9198Z" fill="white"/>
<path d="M22.7444 16.9198H19.0648V16.0942L20.7891 14.0902C21.0434 13.7882 21.2195 13.5371 21.3173 13.3367C21.4176 13.1336 21.4677 12.9492 21.4677 12.7836C21.4677 12.5324 21.4103 12.3347 21.2953 12.1904C21.1828 12.0461 21.0202 11.9739 20.8074 11.9739C20.5702 11.9739 20.3867 12.0661 20.2571 12.2505C20.1299 12.4322 20.0663 12.6593 20.0663 12.9319H18.9584C18.9584 12.5792 19.0342 12.2572 19.1859 11.9659C19.3375 11.672 19.5527 11.4382 19.8315 11.2645C20.1128 11.0882 20.4454 11 20.8294 11C21.3968 11 21.8297 11.1483 22.1281 11.4449C22.4289 11.7415 22.5793 12.149 22.5793 12.6673C22.5793 13.0628 22.4705 13.4369 22.2528 13.7896C22.0376 14.1396 21.7478 14.519 21.3834 14.9279L20.4956 15.9459H22.7444V16.9198Z" fill="white"/>
<path d="M25.0483 13.4689C25.3051 13.4689 25.4959 13.3981 25.6206 13.2565C25.7453 13.1149 25.8077 12.9252 25.8077 12.6874C25.8077 12.4843 25.7515 12.3146 25.6389 12.1784C25.5264 12.0421 25.3516 11.9739 25.1143 11.9739C24.9309 11.9739 24.7707 12.0301 24.6338 12.1423C24.4968 12.2518 24.4283 12.4015 24.4283 12.5912H23.3204C23.3204 12.2705 23.3999 11.9913 23.5589 11.7535C23.7178 11.513 23.9306 11.3273 24.1972 11.1964C24.4638 11.0655 24.7597 11 25.085 11C25.6304 11 26.0718 11.1416 26.4094 11.4248C26.7493 11.7054 26.9193 12.1196 26.9193 12.6673C26.9193 12.9212 26.8484 13.1617 26.7065 13.3888C26.5647 13.6132 26.3666 13.7909 26.1122 13.9218C26.4032 14.0367 26.6234 14.2118 26.7725 14.4469C26.9242 14.682 27 14.9599 27 15.2806C27 15.644 26.9156 15.9539 26.7469 16.2104C26.5781 16.4669 26.3494 16.6633 26.0608 16.7996C25.7722 16.9332 25.447 17 25.085 17C24.7817 17 24.4895 16.9399 24.2082 16.8196C23.9294 16.6994 23.6995 16.515 23.5185 16.2665C23.34 16.018 23.2507 15.7014 23.2507 15.3166H24.3659C24.3659 15.5197 24.4369 15.6894 24.5787 15.8257C24.7206 15.9593 24.8991 16.0261 25.1143 16.0261C25.3565 16.0261 25.546 15.9552 25.683 15.8136C25.8224 15.6693 25.8921 15.485 25.8921 15.2605C25.8921 14.9559 25.8163 14.7395 25.6646 14.6112C25.5154 14.4803 25.31 14.4148 25.0483 14.4148H24.476V13.4689H25.0483Z" fill="white"/>
</g>
<defs>
<clipPath id="clip0_1907_11651">
<rect width="31" height="31" fill="white"/>
</clipPath>
</defs>
</svg>
