<svg width="47" height="84" viewBox="0 0 47 84" fill="none" xmlns="http://www.w3.org/2000/svg">
<g clip-path="url(#clip0_2105_11575)">
<path d="M41.2587 0H5.73928C4.28725 0.0025023 2.89551 0.580857 1.86936 1.60819C0.84321 2.63551 0.266457 4.02792 0.265625 5.47995L0.265625 78.5232C0.267013 79.9748 0.844045 81.3665 1.87016 82.3932C2.89628 83.4199 4.28771 83.9978 5.73928 84H41.2576C42.7095 83.9981 44.1013 83.4204 45.1278 82.3937C46.1543 81.367 46.7317 79.975 46.7334 78.5232V5.47995C46.7325 4.02774 46.1556 2.63517 45.1293 1.60781C44.1029 0.580456 42.7109 0.00222452 41.2587 0Z" fill="black"/>
<path d="M4.84766 18.9126L42.1531 18.9136V59.6578H4.84766V18.9126Z" fill="white"/>
<path d="M5.74016 4.58008H41.2585C41.4963 4.58119 41.724 4.67652 41.8917 4.84518C42.0594 5.01385 42.1534 5.2421 42.1531 5.47993V14.3335H4.84766V5.47993C4.8471 5.24237 4.94072 5.01428 5.108 4.84562C5.27529 4.67695 5.50261 4.58147 5.74016 4.58008Z" fill="white"/>
<path d="M41.2587 79.4197H5.73925C5.50283 79.4162 5.27713 79.3205 5.11023 79.153C4.94333 78.9855 4.84841 78.7595 4.8457 78.523V64.2378H42.1522V78.523C42.1522 78.7603 42.0582 78.9879 41.8907 79.156C41.7232 79.3241 41.4959 79.4189 41.2587 79.4197Z" fill="white"/>
<path d="M23.4991 66.4062C22.4275 66.4063 21.38 66.724 20.4889 67.3192C19.5978 67.9145 18.9033 68.7606 18.493 69.7505C18.0827 70.7405 17.9751 71.8299 18.1839 72.881C18.3927 73.932 18.9084 74.8976 19.6658 75.6557C20.4232 76.4137 21.3884 76.9301 22.4394 77.1397C23.4903 77.3493 24.5797 77.2426 25.57 76.8331C26.5603 76.4235 27.4069 75.7296 28.0029 74.839C28.5988 73.9484 28.9173 72.9011 28.9182 71.8295C28.9173 70.3921 28.3463 69.0138 27.3303 67.9971C26.3143 66.9803 24.9365 66.4082 23.4991 66.4062ZM23.4991 74.191C23.0311 74.191 22.5735 74.0521 22.1844 73.792C21.7953 73.5318 21.4921 73.1621 21.3132 72.7296C21.1342 72.2971 21.0876 71.8212 21.1792 71.3622C21.2709 70.9032 21.4966 70.4817 21.8279 70.151C22.1591 69.8204 22.581 69.5954 23.0402 69.5046C23.4994 69.4138 23.9751 69.4612 24.4073 69.6409C24.8395 69.8206 25.2087 70.1245 25.4681 70.5141C25.7276 70.9037 25.8656 71.3614 25.8648 71.8295C25.8652 72.1401 25.8043 72.4477 25.6855 72.7347C25.5667 73.0216 25.3924 73.2823 25.1726 73.5017C24.9528 73.7211 24.6918 73.895 24.4046 74.0133C24.1174 74.1315 23.8097 74.1919 23.4991 74.191Z" fill="#0BAAF7"/>
<path d="M18.8939 10.9831H28.1087C28.5136 10.9831 28.9019 10.8222 29.1882 10.5359C29.4745 10.2496 29.6354 9.86129 29.6354 9.45639C29.6354 9.05148 29.4745 8.66316 29.1882 8.37685C28.9019 8.09054 28.5136 7.92969 28.1087 7.92969H18.8939C18.489 7.92969 18.1007 8.09054 17.8143 8.37685C17.528 8.66316 17.3672 9.05148 17.3672 9.45639C17.3672 9.86129 17.528 10.2496 17.8143 10.5359C18.1007 10.8222 18.489 10.9831 18.8939 10.9831Z" fill="black"/>
</g>
<defs>
<clipPath id="clip0_2105_11575">
<rect width="46.4678" height="84" fill="white" transform="translate(0.265625)"/>
</clipPath>
</defs>
</svg>
