<svg width="85" height="84" viewBox="0 0 85 84" fill="none" xmlns="http://www.w3.org/2000/svg">
<g clip-path="url(#clip0_2105_11547)">
<path d="M8.01065 73.5001C6.01879 73.4998 4.10859 72.7096 2.70013 71.3031C1.29167 69.8967 0.50028 67.9892 0.5 66.0002L0.5 7.4978C0.50084 5.50915 1.29247 3.60222 2.70087 2.19623C4.10927 0.790246 6.01915 0.000279285 8.01065 0L63.1324 0C65.1244 -1.96415e-08 67.0349 0.790133 68.4436 2.19661C69.8523 3.60308 70.6438 5.51071 70.6441 7.49991V35.1521L70.3823 35.0867C69.3008 34.7712 68.1785 34.6174 67.0518 34.6303H66.9864L66.921 34.4342H66.7246V7.49991C66.7246 5.60885 65.0272 3.91597 63.1355 3.91597H8.01065C6.11689 3.91597 4.42158 5.61202 4.42158 7.49991V66.0023C4.42158 67.8934 6.12006 69.5863 8.01065 69.5863H36.9438L37.0082 69.6516C37.7271 70.6298 37.3354 71.3477 37.0736 71.8652C36.8129 72.3216 36.682 72.6474 37.1391 73.1038L37.5307 73.4959L8.01065 73.5001Z" fill="#1D1D1B"/>
<path d="M12.2561 14.3472C11.5372 14.3472 10.9492 13.4344 10.9492 12.3255C10.9492 11.2166 11.5372 10.3037 12.2561 10.3037H34.4608C35.1796 10.3037 35.7676 11.2176 35.7676 12.3255C35.7676 13.4333 35.1796 14.3472 34.4608 14.3472H12.2561Z" fill="black"/>
<path d="M34.4608 10.5H12.2561C11.6681 10.5 11.1456 11.2832 11.1456 12.3257C11.1456 13.3682 11.6734 14.1524 12.2561 14.1524H34.4608C35.0487 14.1524 35.5713 13.3693 35.5713 12.3257C35.5713 11.2821 35.1142 10.5 34.4608 10.5ZM11.9943 24.783C11.4063 24.783 10.9492 23.9345 10.9492 22.7613C10.9492 21.5881 11.4063 20.7395 11.9943 20.7395H27.934C28.5219 20.7395 28.979 21.5828 28.979 22.7613C28.979 23.9397 28.5219 24.783 27.934 24.783H11.9943Z" fill="#0D9EF8"/>
<path d="M27.93 20.9346H11.9903C11.5332 20.9346 11.207 21.7178 11.207 22.7613C11.207 23.8049 11.5332 24.587 11.9903 24.587H27.93C28.3881 24.587 28.7143 23.8049 28.7143 22.7613C28.7143 21.7178 28.3227 20.9346 27.93 20.9346Z" fill="#0D9EF8"/>
<path d="M60.8465 83.9998C58.5611 83.9998 56.0783 83.8691 52.8787 83.6077C48.2415 83.2166 43.9969 81.0652 39.8821 77.086L21.334 58.9555C17.0229 54.7813 16.8276 49.3031 20.6806 45.1289C22.3136 43.4339 24.8608 42.3882 27.6033 42.3882C30.3457 42.3882 32.8285 43.4318 34.3961 45.2575C34.5281 45.392 34.6828 45.5023 34.8532 45.5832C34.9186 45.6486 35.0485 45.7139 35.1139 45.7793V32.739C35.1139 29.4123 35.1139 26.0213 35.1794 22.6956C35.2448 17.7413 39.0978 13.9561 44.1921 13.9561H44.2576C49.1556 13.9561 52.8787 17.54 53.1395 22.4342C53.2049 23.5854 53.2049 24.7393 53.1395 25.8906V27.3905H54.1244C57.5213 27.3905 60.1329 28.5648 62.0277 31.043C62.0931 31.1737 62.4848 31.3044 63.0073 31.3044C63.2026 31.3044 63.3989 31.3044 63.5298 31.239C64.0929 31.1655 64.6595 31.1218 65.2272 31.1083C67.8399 31.1083 70.1263 32.1519 72.0887 34.3044C72.4149 34.6301 73.1337 34.8915 73.7861 34.8915H74.0479C74.5233 34.8156 75.0033 34.7719 75.4846 34.7608C80.3826 34.7608 84.301 38.2172 84.3665 42.7171C84.5628 50.9992 84.6937 59.1516 83.7785 67.2386C82.6691 77.0217 77.4449 82.2384 67.2551 83.5434C65.3613 83.8691 63.2058 83.9998 60.8549 83.9998H60.8465Z" fill="#1D1D1B"/>
<path d="M27.2772 46.1082C25.9198 46.1056 24.6119 46.6172 23.6174 47.5397C22.4414 48.7139 21.7891 50.0832 21.7891 51.5832C21.7891 53.1485 22.5069 54.7138 23.8137 56.0178L26.2976 58.5023C31.7181 63.8476 37.3403 69.3258 42.9519 74.7354C45.6965 77.3443 48.8295 79.0403 52.2909 79.6896C54.9155 80.2053 57.5837 80.4676 60.2586 80.4728C62.6038 80.4851 64.9445 80.2666 67.2467 79.8203C75.5417 78.3204 79.3292 74.339 80.1135 66.6441C80.8313 59.2749 80.7659 51.7097 80.636 44.4027V43.2389C80.5706 40.5647 78.6768 38.739 75.9987 38.739C75.2841 38.7425 74.576 38.875 73.9086 39.1301V49.3042C73.9086 50.2171 73.9086 51.9774 72.0803 51.9774H72.0149C71.4269 51.9774 70.9698 51.8478 70.708 51.521C70.1802 50.9992 70.1211 50.021 70.1211 49.2389V48.8478C70.1211 45.8478 70.1855 42.7825 70.1211 39.7172C70.0557 37.043 68.1609 35.1519 65.5493 35.1519C64.9026 35.1591 64.2612 35.269 63.6492 35.4776V46.0428C63.6492 46.9557 63.4539 47.6735 62.9968 48.13C62.6696 48.4557 62.2125 48.6517 61.6245 48.6517H61.5601C59.7962 48.5864 59.7962 46.7607 59.7962 46.1082V36.3262C59.7767 35.0011 59.2373 33.7366 58.2941 32.8044C57.3951 31.899 56.175 31.3835 54.8982 31.3698C54.3428 31.3603 53.79 31.4484 53.2652 31.6302V36.3262C53.2652 38.5398 53.2652 40.8915 53.1343 43.1778C53.0688 43.7649 52.5463 44.2214 52.0248 44.6778C51.8285 44.8738 51.5667 45.0689 51.3714 45.2649L51.1751 45.4599L51.0442 45.1342C50.9044 44.9294 50.7275 44.7525 50.5227 44.6124C50.13 44.156 49.6729 43.6996 49.4122 43.1778C49.2159 42.7867 49.2813 42.3345 49.2813 41.9382V35.739C49.2813 31.5648 49.2813 27.2609 49.2159 23.0213C49.2159 19.8907 47.1912 17.8046 44.2545 17.7393C41.0539 17.7393 38.8994 20.0214 38.8994 23.3481V54.0645L38.0496 54.5916L37.9842 54.4619C37.3973 53.8094 36.7439 53.1569 36.1559 52.5045C34.7836 51.0698 33.348 49.5045 31.9113 48.0699C30.6044 46.8313 28.9714 46.1135 27.274 46.1135L27.2772 46.1082Z" fill="white"/>
<path d="M41.9688 68.5821C53.1333 71.2404 75.6751 72.8353 76.5257 57.9492C78.4751 68.7593 74.2928 86.0201 41.9688 68.5821Z" fill="#DEDDDE"/>
</g>
<defs>
<clipPath id="clip0_2105_11547">
<rect width="84" height="84" fill="white" transform="translate(0.5)"/>
</clipPath>
</defs>
</svg>
