<svg width="13" height="12" viewBox="0 0 13 12" fill="none" xmlns="http://www.w3.org/2000/svg">
<path d="M6.25 0.1875C3.04007 0.1875 0.4375 2.79101 0.4375 6C0.4375 9.21087 3.04007 11.8125 6.25 11.8125C9.45993 11.8125 12.0625 9.21087 12.0625 6C12.0625 2.79101 9.45993 0.1875 6.25 0.1875ZM6.25 2.76562C6.79366 2.76562 7.23438 3.20634 7.23438 3.75C7.23438 4.29366 6.79366 4.73438 6.25 4.73438C5.70634 4.73438 5.26562 4.29366 5.26562 3.75C5.26562 3.20634 5.70634 2.76562 6.25 2.76562ZM7.5625 8.71875C7.5625 8.87407 7.43657 9 7.28125 9H5.21875C5.06343 9 4.9375 8.87407 4.9375 8.71875V8.15625C4.9375 8.00093 5.06343 7.875 5.21875 7.875H5.5V6.375H5.21875C5.06343 6.375 4.9375 6.24907 4.9375 6.09375V5.53125C4.9375 5.37593 5.06343 5.25 5.21875 5.25H6.71875C6.87407 5.25 7 5.37593 7 5.53125V7.875H7.28125C7.43657 7.875 7.5625 8.00093 7.5625 8.15625V8.71875Z" fill="#003380"/>
</svg>
