<svg width="16" height="17" viewBox="0 0 16 17" fill="none" xmlns="http://www.w3.org/2000/svg">
<g clip-path="url(#clip0_1907_11644)">
<path d="M15.75 8.5C15.75 12.7812 12.2799 16.25 8 16.25C3.72009 16.25 0.25 12.7812 0.25 8.5C0.25 4.22134 3.72009 0.75 8 0.75C12.2799 0.75 15.75 4.22134 15.75 8.5ZM8.20797 3.3125C6.50494 3.3125 5.41875 4.02991 4.56581 5.30494C4.45531 5.47012 4.49228 5.69291 4.65066 5.813L5.735 6.63519C5.89766 6.75853 6.12941 6.72919 6.25578 6.56887C6.81403 5.86081 7.19681 5.45022 8.0465 5.45022C8.68491 5.45022 9.47456 5.86109 9.47456 6.48016C9.47456 6.94816 9.08822 7.1885 8.45788 7.54191C7.72275 7.954 6.75 8.46691 6.75 9.75V9.875C6.75 10.0821 6.91791 10.25 7.125 10.25H8.875C9.08209 10.25 9.25 10.0821 9.25 9.875V9.83334C9.25 8.94391 11.8496 8.90687 11.8496 6.5C11.8496 4.68744 9.96941 3.3125 8.20797 3.3125ZM8 11.0625C7.20734 11.0625 6.5625 11.7073 6.5625 12.5C6.5625 13.2926 7.20734 13.9375 8 13.9375C8.79266 13.9375 9.4375 13.2926 9.4375 12.5C9.4375 11.7073 8.79266 11.0625 8 11.0625Z" fill="#2673E7"/>
</g>
<defs>
<clipPath id="clip0_1907_11644">
<rect width="16" height="16" fill="white" transform="translate(0 0.5)"/>
</clipPath>
</defs>
</svg>
