<svg width="85" height="84" viewBox="0 0 85 84" fill="none" xmlns="http://www.w3.org/2000/svg">
<g clip-path="url(#clip0_2105_11559)">
<path d="M84.1276 2.02565C84.0923 1.50627 83.8672 1.01811 83.4953 0.654313C83.1234 0.290516 82.6308 0.0765614 82.1114 0.0532799C64.7512 -0.70872 49.3519 6.77541 35.5878 22.6981H8.51062C8.04074 22.6978 7.58409 22.8539 7.21253 23.1419C6.84098 23.4299 6.57561 23.8334 6.45821 24.2889V24.3025L0.804176 46.9474C0.760398 47.1149 0.737606 47.2872 0.736328 47.4603C0.736328 48.0236 0.95964 48.5638 1.3572 48.9623C1.75476 49.3608 2.29405 49.5849 2.85659 49.5855H17.8477C16.9204 51.3632 15.9966 53.1498 15.0863 55.026C14.8939 55.4241 14.8299 55.8723 14.9033 56.3085C14.9766 56.7446 15.1836 57.1472 15.4956 57.4603L26.8037 68.7827C27.0002 68.9802 27.2337 69.1369 27.4908 69.2439C27.7479 69.351 28.0235 69.4062 28.302 69.4066C28.6391 69.4065 28.9715 69.327 29.2722 69.1745L29.2609 69.1801C31.0702 68.2608 32.8708 67.3274 34.6628 66.3801V81.8918C34.6628 82.4534 34.8856 82.9919 35.2821 83.389C35.6787 83.7861 36.2165 84.0091 36.7774 84.0091C36.9557 84.0092 37.1335 83.9876 37.3066 83.9446H37.2896L59.9057 78.2834C60.3639 78.1672 60.7705 77.9016 61.0612 77.5285C61.352 77.1554 61.5104 76.6959 61.5115 76.2227V49.0851C75.9383 37.1626 85.5264 22.3381 84.1276 2.03131V2.02565Z" fill="#1D1D1B"/>
<path d="M5.57422 45.3394L10.1687 26.9404H32.1063C27.8032 32.5305 23.9268 38.4371 20.5099 44.6102L20.139 45.3405L5.57422 45.3394Z" fill="white"/>
<path d="M57.2779 74.5512L38.9023 79.1515V64.061C45.9981 60.1751 52.0027 56.3142 57.7303 52.083L57.2779 52.3989V74.5512Z" fill="white"/>
<path d="M28.7127 64.6838L19.5645 55.5239C36.5831 21.0471 56.2783 4.24463 79.7063 4.24463H80.0004C80.9276 33.4814 56.1404 50.6292 28.7127 64.6838Z" fill="white"/>
<path d="M62.2235 14.2031C60.6859 14.2031 59.1828 14.6597 57.9043 15.515C56.6259 16.3703 55.6294 17.5861 55.041 19.0084C54.4526 20.4308 54.2986 21.9959 54.5986 23.5059C54.8986 25.0159 55.639 26.4029 56.7263 27.4915C57.8135 28.5802 59.1988 29.3215 60.7068 29.6219C62.2149 29.9223 63.778 29.7681 65.1986 29.1789C66.6192 28.5898 67.8333 27.5921 68.6876 26.312C69.5418 25.0319 69.9978 23.5269 69.9978 21.9873C69.9951 19.9236 69.1752 17.9453 67.7178 16.486C66.2604 15.0268 64.2846 14.2058 62.2235 14.2031Z" fill="#0D9EF8"/>
<path d="M62.2252 25.5253C61.5263 25.5253 60.843 25.3177 60.2619 24.9289C59.6808 24.5402 59.2279 23.9876 58.9604 23.341C58.6929 22.6945 58.623 21.9831 58.7593 21.2967C58.8957 20.6104 59.2322 19.9799 59.7264 19.4851C60.2206 18.9902 60.8503 18.6532 61.5358 18.5167C62.2213 18.3802 62.9318 18.4503 63.5775 18.7181C64.2232 18.9859 64.7751 19.4394 65.1634 20.0212C65.5517 20.6031 65.7589 21.2872 65.7589 21.987C65.7577 22.925 65.3851 23.8243 64.7226 24.4876C64.0602 25.1509 63.162 25.5241 62.2252 25.5253Z" fill="white"/>
<path d="M9.8676 65.1595H8.52194C7.50422 65.3633 6.86305 65.686 6.53964 66.4933L0.885611 80.6463C0.78596 80.8946 0.735272 81.1599 0.736345 81.4276C0.736344 81.9908 0.959656 82.531 1.35722 82.9295C1.75478 83.328 2.29407 83.5522 2.85661 83.5528C3.1316 83.5522 3.404 83.4996 3.65948 83.3977H3.64478L17.7912 77.7478C18.1666 77.5955 18.4911 77.3396 18.7269 77.0099C18.9627 76.6802 19.1002 76.2901 19.1232 75.8852C19.182 74.7417 19.2589 73.751 19.3245 72.8984C19.5507 70.0508 19.692 68.1656 18.3916 66.7503C16.9555 65.1912 14.8861 65.1799 9.87099 65.1572L9.8676 65.1595Z" fill="#1D1D1B"/>
<path d="M15.0979 72.5772C15.0561 73.1037 15.0108 73.6777 14.9679 74.3118L6.66211 77.6293L9.94145 69.4092C12.4745 69.4205 14.8412 69.4318 15.1714 69.4862C15.202 69.8394 15.2189 70.2504 15.2189 70.666C15.2195 71.3306 15.1753 71.9944 15.0866 72.6531L15.0979 72.5772Z" fill="white"/>
<path fill-rule="evenodd" clip-rule="evenodd" d="M27.4453 63.4162L28.7115 64.684C52.0206 52.7399 73.4226 38.5618 78.7555 16.6284C71.5621 30.1942 42.9788 53.3837 27.4453 63.4162Z" fill="#DEDDDE"/>
</g>
<defs>
<clipPath id="clip0_2105_11559">
<rect width="83.5281" height="84" fill="white" transform="translate(0.736328)"/>
</clipPath>
</defs>
</svg>
